<?xml version="1.0" encoding="UTF-8"?>
<svg width="62px" height="81px" viewBox="0 0 62 81" version="1.1" xmlns="http://www.w3.org/2000/svg" xmlns:xlink="http://www.w3.org/1999/xlink">
    <!-- Generator: Sketch 57.1 (83088) - https://sketch.com -->
    <title>Group 3</title>
    <desc>Created with Sketch.</desc>
    <g id="Page-1" stroke="none" stroke-width="1" fill="none" fill-rule="evenodd">
        <g id="Group-3" transform="translate(1.000000, 1.000000)">
            <g id="noun_Upload-file_2096044" stroke="#1A84EE" stroke-linejoin="round">
                <g id="Group">
                    <path d="M22.4878866,0.0297682924 C22.4012724,0.0574482842 22.3229557,0.106213428 22.260027,0.171648595 L0.157642882,22.4466291 C0.105984988,22.5040616 0.0671525634,22.5717645 0.0437130676,22.6452615 C0.0318881202,22.6727945 0.0223617038,22.7012518 0.0152306138,22.7303443 C0.0149841438,22.7397863 0.0149841438,22.749233 0.0152306138,22.758675 C-0.00507687127,22.8426011 -0.00507687127,22.9301334 0.0152306138,23.0140595 L0.0152306138,78.4604278 C0.0183683432,78.7568775 0.258835729,78.9964265 0.556397235,79 L59.4298569,79 C59.5778045,79.005666 59.7219276,78.951776 59.8292868,78.8501744 C59.936646,78.7485727 59.9980648,78.6079435 60,78.4604278 L60,0.568368622 L59.8398108,0.159946068 L22.6879474,0.000211852876 C22.6752874,0.000211852876 22.6657933,0.000211852876 22.6594649,0.000211852876 C22.6404895,0.000211852876 22.6214754,0.000211852876 22.6025,0.000211852876 C22.5835246,0.000211852876 22.5645105,0.000211852876 22.5455351,0.000211852876 C22.5253271,0.00977112602 22.5063066,0.0192307035 22.4878866,0.0297682924 Z M-3.55271368e-15,22.9097572 L20.9471186,22.9097572 C22.0516881,22.9097572 22.9471186,22.0143267 22.9471186,20.9097572 L22.9471186,0.000233468095 L22.9471186,0.000233468095 L-3.55271368e-15,22.9097572 Z" id="Shape"></path>
                </g>
            </g>
            <path d="M30,18 L54.25,18" id="Shape" stroke="#76B5F5"></path>
            <path d="M30,23 L54.25,23" id="Shape-Copy" stroke="#76B5F5"></path>
            <path d="M6,28 L54.5,28" id="Shape-Copy-2" stroke="#76B5F5"></path>
            <path d="M6,33 L54.5,33" id="Shape-Copy-3" stroke="#76B5F5"></path>
            <path d="M6,38 L54.5,38" id="Shape-Copy-4" stroke="#76B5F5"></path>
            <path d="M6,43 L54.5,43" id="Shape-Copy-5" stroke="#76B5F5"></path>
            <polygon id="Path" fill="#1A84EE" fill-rule="nonzero" transform="translate(30.035000, 54.665000) scale(-1, -1) translate(-30.035000, -54.665000) " points="38 52.37 38 56.4264032 38 56.96 37.4582793 56.96 22.619301 56.96 22.07 56.96 22.07 56.4264032 22.07 52.37 23.160751 52.37 23.160751 55.8850692 36.9089783 55.8850692 36.9089783 52.37"></polygon>
            <polygon id="Path-Copy" fill="#1A84EE" fill-rule="nonzero" transform="translate(30.035000, 63.035000) scale(-1, -1) translate(-30.035000, -63.035000) " points="29.4958001 68.9151605 29.4958001 55.07 30.5744675 55.07 30.5744675 68.9151605 35.6152971 63.8265419 36.38 64.5987647 30.4213663 70.6138886 30.0388811 71 29.6563958 70.6138886 23.69 64.5987647 24.4549706 63.8265419"></polygon>
        </g>
    </g>
</svg>